<mxfile host="app.diagrams.net" modified="2021-06-07T06:40:21.465Z" agent="5.0 (Windows NT 10.0; Win64; x64) AppleWebKit/537.36 (KHTML, like Gecko) Chrome/91.0.4472.77 Safari/537.36" etag="bTRv3C8Tu9lK0IBO066z" version="14.6.13" type="github">
  <diagram id="BNm1Jv0NIvBhA8LqzDOY" name="Page-1">
    <mxGraphModel dx="1182" dy="764" grid="1" gridSize="10" guides="1" tooltips="1" connect="1" arrows="1" fold="1" page="1" pageScale="1" pageWidth="850" pageHeight="1100" math="0" shadow="0">
      <root>
        <mxCell id="0" />
        <mxCell id="1" parent="0" />
        <mxCell id="8TZ4IMDvUVujUjeGXgcX-36" value="atomic _time &lt;br&gt;reached" style="edgeStyle=orthogonalEdgeStyle;rounded=0;orthogonalLoop=1;jettySize=auto;html=1;exitX=0.25;exitY=1;exitDx=0;exitDy=0;entryX=0;entryY=0.5;entryDx=0;entryDy=0;" edge="1" parent="1" source="8TZ4IMDvUVujUjeGXgcX-31" target="8TZ4IMDvUVujUjeGXgcX-26">
          <mxGeometry x="0.25" relative="1" as="geometry">
            <mxPoint as="offset" />
          </mxGeometry>
        </mxCell>
        <mxCell id="8TZ4IMDvUVujUjeGXgcX-31" value="Countdown" style="html=1;align=center;verticalAlign=top;rounded=1;absoluteArcSize=1;arcSize=10;dashed=0;" vertex="1" parent="1">
          <mxGeometry x="310" y="310" width="60" height="40" as="geometry" />
        </mxCell>
        <mxCell id="8TZ4IMDvUVujUjeGXgcX-32" value="button_2 pressed" style="edgeStyle=orthogonalEdgeStyle;rounded=0;orthogonalLoop=1;jettySize=auto;html=1;exitX=0.25;exitY=1;exitDx=0;exitDy=0;entryX=0.5;entryY=0;entryDx=0;entryDy=0;" edge="1" parent="1" source="8TZ4IMDvUVujUjeGXgcX-30" target="8TZ4IMDvUVujUjeGXgcX-24">
          <mxGeometry relative="1" as="geometry" />
        </mxCell>
        <mxCell id="8TZ4IMDvUVujUjeGXgcX-34" value="button_1 hold" style="edgeStyle=orthogonalEdgeStyle;rounded=0;orthogonalLoop=1;jettySize=auto;html=1;exitX=0.75;exitY=1;exitDx=0;exitDy=0;entryX=0.5;entryY=0;entryDx=0;entryDy=0;" edge="1" parent="1" source="8TZ4IMDvUVujUjeGXgcX-30" target="8TZ4IMDvUVujUjeGXgcX-25">
          <mxGeometry relative="1" as="geometry">
            <Array as="points">
              <mxPoint x="275" y="450" />
              <mxPoint x="180" y="450" />
            </Array>
          </mxGeometry>
        </mxCell>
        <mxCell id="8TZ4IMDvUVujUjeGXgcX-30" value="Countdown" style="html=1;align=center;verticalAlign=top;rounded=1;absoluteArcSize=1;arcSize=10;dashed=0;" vertex="1" parent="1">
          <mxGeometry x="230" y="310" width="60" height="40" as="geometry" />
        </mxCell>
        <mxCell id="8TZ4IMDvUVujUjeGXgcX-29" style="edgeStyle=orthogonalEdgeStyle;rounded=0;orthogonalLoop=1;jettySize=auto;html=1;exitX=0.5;exitY=1;exitDx=0;exitDy=0;entryX=0.5;entryY=0;entryDx=0;entryDy=0;" edge="1" parent="1" source="8TZ4IMDvUVujUjeGXgcX-4" target="8TZ4IMDvUVujUjeGXgcX-5">
          <mxGeometry relative="1" as="geometry" />
        </mxCell>
        <mxCell id="8TZ4IMDvUVujUjeGXgcX-4" value="" style="ellipse;fillColor=#000000;strokeColor=none;" vertex="1" parent="1">
          <mxGeometry x="285" y="30" width="30" height="30" as="geometry" />
        </mxCell>
        <mxCell id="8TZ4IMDvUVujUjeGXgcX-8" value="animation_time reached" style="edgeStyle=orthogonalEdgeStyle;rounded=0;orthogonalLoop=1;jettySize=auto;html=1;exitX=0.5;exitY=1;exitDx=0;exitDy=0;entryX=0.5;entryY=0;entryDx=0;entryDy=0;" edge="1" parent="1" source="8TZ4IMDvUVujUjeGXgcX-5" target="8TZ4IMDvUVujUjeGXgcX-6">
          <mxGeometry relative="1" as="geometry" />
        </mxCell>
        <mxCell id="8TZ4IMDvUVujUjeGXgcX-5" value="Start_Animation" style="html=1;align=center;verticalAlign=top;rounded=1;absoluteArcSize=1;arcSize=10;dashed=0;" vertex="1" parent="1">
          <mxGeometry x="230" y="100" width="140" height="40" as="geometry" />
        </mxCell>
        <mxCell id="8TZ4IMDvUVujUjeGXgcX-9" value="temp_clock_time reached" style="edgeStyle=orthogonalEdgeStyle;rounded=0;orthogonalLoop=1;jettySize=auto;html=1;exitX=0.5;exitY=1;exitDx=0;exitDy=0;entryX=0.5;entryY=0;entryDx=0;entryDy=0;" edge="1" parent="1" source="8TZ4IMDvUVujUjeGXgcX-6" target="8TZ4IMDvUVujUjeGXgcX-7">
          <mxGeometry relative="1" as="geometry" />
        </mxCell>
        <mxCell id="8TZ4IMDvUVujUjeGXgcX-6" value="Temp_Clock" style="html=1;align=center;verticalAlign=top;rounded=1;absoluteArcSize=1;arcSize=10;dashed=0;" vertex="1" parent="1">
          <mxGeometry x="230" y="200" width="140" height="40" as="geometry" />
        </mxCell>
        <mxCell id="8TZ4IMDvUVujUjeGXgcX-11" value="button_1 pressed" style="edgeStyle=orthogonalEdgeStyle;rounded=0;orthogonalLoop=1;jettySize=auto;html=1;exitX=1;exitY=0.25;exitDx=0;exitDy=0;entryX=0;entryY=0.25;entryDx=0;entryDy=0;" edge="1" parent="1" source="8TZ4IMDvUVujUjeGXgcX-7" target="8TZ4IMDvUVujUjeGXgcX-10">
          <mxGeometry relative="1" as="geometry" />
        </mxCell>
        <mxCell id="8TZ4IMDvUVujUjeGXgcX-7" value="Countdown" style="html=1;align=center;verticalAlign=top;rounded=1;absoluteArcSize=1;arcSize=10;dashed=0;" vertex="1" parent="1">
          <mxGeometry x="230" y="310" width="140" height="40" as="geometry" />
        </mxCell>
        <mxCell id="8TZ4IMDvUVujUjeGXgcX-12" value="idle_time reached" style="edgeStyle=orthogonalEdgeStyle;rounded=0;orthogonalLoop=1;jettySize=auto;html=1;exitX=0;exitY=0.75;exitDx=0;exitDy=0;entryX=1;entryY=0.75;entryDx=0;entryDy=0;" edge="1" parent="1">
          <mxGeometry relative="1" as="geometry">
            <mxPoint x="515" y="340" as="sourcePoint" />
            <mxPoint x="370" y="340" as="targetPoint" />
          </mxGeometry>
        </mxCell>
        <mxCell id="8TZ4IMDvUVujUjeGXgcX-15" value="button_1 pressed" style="edgeStyle=orthogonalEdgeStyle;rounded=0;orthogonalLoop=1;jettySize=auto;html=1;exitX=0.5;exitY=1;exitDx=0;exitDy=0;" edge="1" parent="1" source="8TZ4IMDvUVujUjeGXgcX-10" target="8TZ4IMDvUVujUjeGXgcX-13">
          <mxGeometry relative="1" as="geometry" />
        </mxCell>
        <mxCell id="8TZ4IMDvUVujUjeGXgcX-17" value="button_2 pressed" style="edgeStyle=orthogonalEdgeStyle;rounded=0;orthogonalLoop=1;jettySize=auto;html=1;exitX=1;exitY=0.25;exitDx=0;exitDy=0;entryX=0;entryY=0.25;entryDx=0;entryDy=0;" edge="1" parent="1" source="8TZ4IMDvUVujUjeGXgcX-10" target="8TZ4IMDvUVujUjeGXgcX-16">
          <mxGeometry relative="1" as="geometry" />
        </mxCell>
        <mxCell id="8TZ4IMDvUVujUjeGXgcX-10" value="Clock" style="html=1;align=center;verticalAlign=top;rounded=1;absoluteArcSize=1;arcSize=10;dashed=0;" vertex="1" parent="1">
          <mxGeometry x="515" y="310" width="80" height="40" as="geometry" />
        </mxCell>
        <mxCell id="8TZ4IMDvUVujUjeGXgcX-20" value="button_2 pressed" style="edgeStyle=orthogonalEdgeStyle;rounded=0;orthogonalLoop=1;jettySize=auto;html=1;exitX=1;exitY=0.25;exitDx=0;exitDy=0;entryX=0;entryY=0.25;entryDx=0;entryDy=0;" edge="1" parent="1" source="8TZ4IMDvUVujUjeGXgcX-13" target="8TZ4IMDvUVujUjeGXgcX-19">
          <mxGeometry relative="1" as="geometry" />
        </mxCell>
        <mxCell id="8TZ4IMDvUVujUjeGXgcX-22" value="button_1 pressed ||&lt;br&gt;idle_time reached" style="edgeStyle=orthogonalEdgeStyle;rounded=0;orthogonalLoop=1;jettySize=auto;html=1;exitX=0;exitY=0.5;exitDx=0;exitDy=0;entryX=0.75;entryY=1;entryDx=0;entryDy=0;" edge="1" parent="1" source="8TZ4IMDvUVujUjeGXgcX-13" target="8TZ4IMDvUVujUjeGXgcX-31">
          <mxGeometry x="-0.2609" relative="1" as="geometry">
            <mxPoint as="offset" />
          </mxGeometry>
        </mxCell>
        <mxCell id="8TZ4IMDvUVujUjeGXgcX-13" value="Timer" style="html=1;align=center;verticalAlign=top;rounded=1;absoluteArcSize=1;arcSize=10;dashed=0;" vertex="1" parent="1">
          <mxGeometry x="515" y="400" width="80" height="40" as="geometry" />
        </mxCell>
        <mxCell id="8TZ4IMDvUVujUjeGXgcX-18" value="action completed" style="edgeStyle=orthogonalEdgeStyle;rounded=0;orthogonalLoop=1;jettySize=auto;html=1;exitX=0;exitY=0.75;exitDx=0;exitDy=0;entryX=1;entryY=0.75;entryDx=0;entryDy=0;" edge="1" parent="1" source="8TZ4IMDvUVujUjeGXgcX-16" target="8TZ4IMDvUVujUjeGXgcX-10">
          <mxGeometry relative="1" as="geometry" />
        </mxCell>
        <mxCell id="8TZ4IMDvUVujUjeGXgcX-16" value="Clock_Set" style="html=1;align=center;verticalAlign=top;rounded=1;absoluteArcSize=1;arcSize=10;dashed=0;" vertex="1" parent="1">
          <mxGeometry x="730" y="310" width="80" height="40" as="geometry" />
        </mxCell>
        <mxCell id="8TZ4IMDvUVujUjeGXgcX-21" value="action completed" style="edgeStyle=orthogonalEdgeStyle;rounded=0;orthogonalLoop=1;jettySize=auto;html=1;exitX=0;exitY=0.75;exitDx=0;exitDy=0;entryX=1;entryY=0.75;entryDx=0;entryDy=0;" edge="1" parent="1" source="8TZ4IMDvUVujUjeGXgcX-19" target="8TZ4IMDvUVujUjeGXgcX-13">
          <mxGeometry relative="1" as="geometry" />
        </mxCell>
        <mxCell id="8TZ4IMDvUVujUjeGXgcX-19" value="Timer_Set" style="html=1;align=center;verticalAlign=top;rounded=1;absoluteArcSize=1;arcSize=10;dashed=0;" vertex="1" parent="1">
          <mxGeometry x="730" y="400" width="80" height="40" as="geometry" />
        </mxCell>
        <mxCell id="8TZ4IMDvUVujUjeGXgcX-27" value="button_2 hold" style="edgeStyle=orthogonalEdgeStyle;rounded=0;orthogonalLoop=1;jettySize=auto;html=1;entryX=1;entryY=0.5;entryDx=0;entryDy=0;exitX=0;exitY=0.25;exitDx=0;exitDy=0;" edge="1" parent="1" source="8TZ4IMDvUVujUjeGXgcX-7" target="8TZ4IMDvUVujUjeGXgcX-23">
          <mxGeometry relative="1" as="geometry">
            <mxPoint x="170" y="240" as="sourcePoint" />
          </mxGeometry>
        </mxCell>
        <mxCell id="8TZ4IMDvUVujUjeGXgcX-28" value="action complete" style="edgeStyle=orthogonalEdgeStyle;rounded=0;orthogonalLoop=1;jettySize=auto;html=1;exitX=0.5;exitY=1;exitDx=0;exitDy=0;entryX=0;entryY=0.75;entryDx=0;entryDy=0;" edge="1" parent="1" source="8TZ4IMDvUVujUjeGXgcX-23" target="8TZ4IMDvUVujUjeGXgcX-7">
          <mxGeometry x="0.2381" relative="1" as="geometry">
            <mxPoint as="offset" />
          </mxGeometry>
        </mxCell>
        <mxCell id="8TZ4IMDvUVujUjeGXgcX-23" value="Launch_Time&lt;br&gt;Change" style="html=1;align=center;verticalAlign=top;rounded=1;absoluteArcSize=1;arcSize=10;dashed=0;" vertex="1" parent="1">
          <mxGeometry x="60" y="220" width="80" height="40" as="geometry" />
        </mxCell>
        <mxCell id="8TZ4IMDvUVujUjeGXgcX-40" value="action complete" style="edgeStyle=orthogonalEdgeStyle;rounded=0;orthogonalLoop=1;jettySize=auto;html=1;exitX=1;exitY=0.5;exitDx=0;exitDy=0;entryX=0.25;entryY=1;entryDx=0;entryDy=0;" edge="1" parent="1" source="8TZ4IMDvUVujUjeGXgcX-24" target="8TZ4IMDvUVujUjeGXgcX-7">
          <mxGeometry x="-0.3939" relative="1" as="geometry">
            <mxPoint as="offset" />
          </mxGeometry>
        </mxCell>
        <mxCell id="8TZ4IMDvUVujUjeGXgcX-24" value="Led_Colour&lt;br&gt;Change" style="html=1;align=center;verticalAlign=top;rounded=1;absoluteArcSize=1;arcSize=10;dashed=0;" vertex="1" parent="1">
          <mxGeometry x="80" y="390" width="80" height="40" as="geometry" />
        </mxCell>
        <mxCell id="8TZ4IMDvUVujUjeGXgcX-42" value="fun_time&lt;br&gt;reached" style="edgeStyle=orthogonalEdgeStyle;rounded=0;orthogonalLoop=1;jettySize=auto;html=1;exitX=1;exitY=0.5;exitDx=0;exitDy=0;entryX=1;entryY=1;entryDx=0;entryDy=0;" edge="1" parent="1" source="8TZ4IMDvUVujUjeGXgcX-25" target="8TZ4IMDvUVujUjeGXgcX-30">
          <mxGeometry x="0.0714" relative="1" as="geometry">
            <mxPoint as="offset" />
          </mxGeometry>
        </mxCell>
        <mxCell id="8TZ4IMDvUVujUjeGXgcX-25" value="Fun_Mode" style="html=1;align=center;verticalAlign=top;rounded=1;absoluteArcSize=1;arcSize=10;dashed=0;" vertex="1" parent="1">
          <mxGeometry x="140" y="540" width="80" height="40" as="geometry" />
        </mxCell>
        <mxCell id="8TZ4IMDvUVujUjeGXgcX-37" style="edgeStyle=orthogonalEdgeStyle;rounded=0;orthogonalLoop=1;jettySize=auto;html=1;exitX=0.5;exitY=0;exitDx=0;exitDy=0;entryX=0.5;entryY=1;entryDx=0;entryDy=0;" edge="1" parent="1" source="8TZ4IMDvUVujUjeGXgcX-26" target="8TZ4IMDvUVujUjeGXgcX-31">
          <mxGeometry relative="1" as="geometry">
            <Array as="points">
              <mxPoint x="435" y="470" />
              <mxPoint x="340" y="470" />
            </Array>
          </mxGeometry>
        </mxCell>
        <mxCell id="8TZ4IMDvUVujUjeGXgcX-38" value="action complete" style="edgeLabel;html=1;align=center;verticalAlign=middle;resizable=0;points=[];" vertex="1" connectable="0" parent="8TZ4IMDvUVujUjeGXgcX-37">
          <mxGeometry x="-0.0644" relative="1" as="geometry">
            <mxPoint x="13" as="offset" />
          </mxGeometry>
        </mxCell>
        <mxCell id="8TZ4IMDvUVujUjeGXgcX-26" value="Atomic_Update" style="html=1;align=center;verticalAlign=top;rounded=1;absoluteArcSize=1;arcSize=10;dashed=0;" vertex="1" parent="1">
          <mxGeometry x="380" y="550" width="110" height="40" as="geometry" />
        </mxCell>
        <mxCell id="8TZ4IMDvUVujUjeGXgcX-41" style="edgeStyle=orthogonalEdgeStyle;rounded=0;orthogonalLoop=1;jettySize=auto;html=1;exitX=0.5;exitY=1;exitDx=0;exitDy=0;" edge="1" parent="1" source="8TZ4IMDvUVujUjeGXgcX-7" target="8TZ4IMDvUVujUjeGXgcX-7">
          <mxGeometry relative="1" as="geometry" />
        </mxCell>
      </root>
    </mxGraphModel>
  </diagram>
</mxfile>
